<svg id="Layer_1" data-name="Layer 1" xmlns="http://www.w3.org/2000/svg" viewBox="0 0 50 50"><path d="M22.87,40.16H1.11A1.11,1.11,0,0,1,0,39.05V6.68A1.11,1.11,0,0,1,1.11,5.57H22.87a1.11,1.11,0,0,1,0,2.22H2.22V37.94H22.87a1.11,1.11,0,1,1,0,2.22Z" fill="#fff"/><path d="M22.87,44.46H11.42a1.15,1.15,0,1,1,0-2.29H22.87a1.15,1.15,0,0,1,0,2.29Z" fill="#fff"/><path d="M48.82,44.5H28.21A1.18,1.18,0,0,1,27,43.32V6.68A1.18,1.18,0,0,1,28.21,5.5H48.82A1.18,1.18,0,0,1,50,6.68V43.32A1.18,1.18,0,0,1,48.82,44.5ZM29.39,42.14H47.63V7.86H29.39Z" fill="#fff"/><path d="M38.51,39.69A6.68,6.68,0,1,1,45.19,33,6.69,6.69,0,0,1,38.51,39.69Zm0-11.45A4.77,4.77,0,1,0,43.28,33,4.78,4.78,0,0,0,38.51,28.24Z" fill="#fff"/><circle cx="38.51" cy="15.84" r="2.29" fill="#fff"/></svg>