<svg id="Layer_1" data-name="Layer 1" xmlns="http://www.w3.org/2000/svg" viewBox="0 0 50 50"><path d="M19.65,14.11a7.1,7.1,0,0,0-2.52.44A5.88,5.88,0,0,0,15,16a6.93,6.93,0,0,0-1.51,2.33,7,7,0,0,0,0,5.31A6.93,6.93,0,0,0,15,25.94c.14.14.52.57,1.14,1.26s1.33,1.49,2.1,2.37l2.31,2.62c.76.87,1.4,1.59,1.93,2.17l.78.87a2,2,0,0,0,1.54.66,2.1,2.1,0,0,0,1.55-.66q8.18-9,8.27-9.1a6.9,6.9,0,0,0,2-5,6.82,6.82,0,0,0-2-5,7.17,7.17,0,0,0-2.16-1.55,6.08,6.08,0,0,0-2.51-.5,5,5,0,0,0-2.57.82A12.74,12.74,0,0,0,24.84,17Q21.93,14.11,19.65,14.11Z" fill="#1db954"/></svg>