<svg id="Layer_1" data-name="Layer 1" xmlns="http://www.w3.org/2000/svg" viewBox="0 0 50 50"><path d="M23.66,9.25a13.41,13.41,0,0,0-1.47,3.27H15.85c-5.14,0-8.75,1.37-10.72,4-3.25,4.4-1.25,11.09-1.22,11.15a1.63,1.63,0,0,1-1.1,2,1.67,1.67,0,0,1-.49.08A1.66,1.66,0,0,1,.76,28.65c-.11-.33-2.48-8.34,1.75-14,2.62-3.55,7.11-5.35,13.34-5.35Z" fill="#1db954"/><path d="M47.49,34.55c-2.62,3.55-7.11,5.35-13.34,5.35H11a1.64,1.64,0,1,1,0-3.28H34.15c5.14,0,8.72-1.33,10.69-4a11.67,11.67,0,0,0,1.8-7.82A13.6,13.6,0,0,0,49,20a1.73,1.73,0,0,1,.28.52C49.35,20.83,51.72,28.84,47.49,34.55Z" fill="#1db954"/><polygon points="10.79 45.09 10.79 31.44 2.56 38.26 10.79 45.09" fill="#1db954"/><path d="M10.79,46a.93.93,0,0,1-.59-.21L2,39a.94.94,0,0,1,0-1.41l8.23-6.83a.93.93,0,0,1,1-.12.92.92,0,0,1,.53.83V45.09a.89.89,0,0,1-.53.82A.85.85,0,0,1,10.79,46ZM4,38.26l5.88,4.89V33.38Z" fill="#1db954"/><path d="M35.5,4.49a12,12,0,1,0,12,12A12,12,0,0,0,35.5,4.49Zm2.26,18.1H35.44V13.85a8.05,8.05,0,0,1-3,1.75V13.5a6.77,6.77,0,0,0,2-1.13,4.28,4.28,0,0,0,1.47-1.93h1.88Z" fill="#1db954"/></svg>