<svg id="Layer_1" data-name="Layer 1" xmlns="http://www.w3.org/2000/svg" viewBox="0 0 50 50"><path d="M2.33,30.62A1.65,1.65,0,0,1,.76,29.45c-.1-.33-2.49-8.34,1.74-14.06C5.13,11.84,9.61,10,15.84,10H39a1.64,1.64,0,0,1,0,3.28H15.84c-5.13,0-8.73,1.36-10.7,4C1.89,21.75,3.88,28.42,3.9,28.49a1.63,1.63,0,0,1-1.08,2.05A1.67,1.67,0,0,1,2.33,30.62Z" fill="#fff"/><polygon points="39.21 4.86 39.21 18.51 47.44 11.68 39.21 4.86" fill="#fff"/><path d="M39.21,19.42a1,1,0,0,1-.38-.08.92.92,0,0,1-.53-.83V4.86a.92.92,0,0,1,1.5-.71L48,11a.92.92,0,0,1,0,1.41L39.8,19.21A.93.93,0,0,1,39.21,19.42ZM40.13,6.8v9.77L46,11.68Z" fill="#fff"/><path d="M34.16,40.7H11a1.64,1.64,0,1,1,0-3.28H34.16c5.12,0,8.71-1.35,10.69-4C48.1,29,46.12,22.32,46.09,22.25a1.64,1.64,0,0,1,3.14-1c.11.33,2.5,8.34-1.73,14.06C44.88,38.9,40.39,40.7,34.16,40.7Z" fill="#fff"/><polygon points="10.79 45.88 10.79 32.23 2.56 39.06 10.79 45.88" fill="#fff"/><path d="M10.79,46.8a.94.94,0,0,1-.59-.22L2,39.76a.91.91,0,0,1,0-1.4l8.22-6.83a.92.92,0,0,1,1-.12.9.9,0,0,1,.52.82V45.88a.91.91,0,0,1-.52.83A.92.92,0,0,1,10.79,46.8ZM4,39.06l5.88,4.88V34.17Z" fill="#fff"/></svg>