<svg id="Layer_1" data-name="Layer 1" xmlns="http://www.w3.org/2000/svg" viewBox="0 0 50 50"><polygon points="41.4 5.52 41.4 18.43 49.14 11.97 41.4 5.52" fill="#fff"/><path d="M41.39,19.28A.78.78,0,0,1,41,19.2a.86.86,0,0,1-.5-.78V5.52a.86.86,0,0,1,.5-.78.9.9,0,0,1,.92.11l7.74,6.46a.86.86,0,0,1,0,1.32L42,19.09A.88.88,0,0,1,41.39,19.28Zm.87-11.93v9.24L47.79,12Z" fill="#fff"/><path d="M1.76,40.08a1.47,1.47,0,1,1,0-2.94c12.14,0,16.78-7,19.21-12.36A23.89,23.89,0,0,1,42.86,10.72a1.47,1.47,0,1,1,0,2.93A20.84,20.84,0,0,0,23.64,26C22.05,29.49,17.19,40.08,1.76,40.08Z" fill="#fff"/><polygon points="41.4 44.48 41.4 31.57 49.14 38.03 41.4 44.48" fill="#fff"/><path d="M41.39,45.34a.78.78,0,0,1-.36-.08.86.86,0,0,1-.5-.78V31.57a.88.88,0,0,1,.5-.78.9.9,0,0,1,.92.12l7.74,6.46A.83.83,0,0,1,50,38a.85.85,0,0,1-.31.66L42,45.15A.88.88,0,0,1,41.39,45.34Zm.87-11.93v9.24L47.79,38Z" fill="#fff"/><path d="M22,20.1a23.88,23.88,0,0,0-2.05,3.55c-2.62-4.93-7.4-10.51-18.15-10.51A1.75,1.75,0,0,1,0,11.38,1.77,1.77,0,0,1,1.75,9.61C13.41,9.61,19.13,15.6,22,20.1Z" fill="#fff"/><path d="M44.62,37.8a1.74,1.74,0,0,1-1.76,1.76,24.17,24.17,0,0,1-19.5-9.77A31.18,31.18,0,0,0,25,26.61c.06-.11.12-.26.2-.38C30.64,35.28,40,36,42.86,36A1.76,1.76,0,0,1,44.62,37.8Z" fill="#fff"/></svg>